<?xml version="1.0" standalone="no"?>
<!DOCTYPE svg PUBLIC "-//W3C//DTD SVG 20010904//EN"
 "http://www.w3.org/TR/2001/REC-SVG-20010904/DTD/svg10.dtd">
<svg version="1.0" xmlns="http://www.w3.org/2000/svg"
 width="700.000000pt" height="700.000000pt" viewBox="0 0 700.000000 700.000000"
 preserveAspectRatio="xMidYMid meet">
<metadata>
Created by potrace 1.11, written by Peter Selinger 2001-2013
</metadata>
<g transform="translate(0.000000,700.000000) scale(0.100000,-0.100000)"
fill="#000000" stroke="none">
<path d="M6568 6994 c-2 -1 -46 -5 -98 -8 -53 -3 -116 -8 -140 -12 -133 -16
-259 -36 -375 -60 -167 -33 -144 -28 -265 -59 -596 -150 -1215 -429 -1750
-788 -93 -63 -387 -280 -400 -296 -3 -3 -25 -22 -50 -42 -131 -106 -329 -293
-484 -458 -66 -70 -48 -65 -246 -76 -63 -3 -124 -8 -135 -10 -11 -2 -42 -7
-70 -10 -596 -69 -1254 -336 -1749 -710 -191 -144 -398 -333 -425 -387 -21
-43 -19 -88 6 -131 36 -61 64 -71 268 -97 44 -6 91 -12 105 -14 14 -3 61 -10
105 -16 44 -6 91 -13 105 -15 63 -10 293 -43 352 -50 18 -2 51 -7 73 -10 50
-8 78 -12 135 -20 88 -12 87 -9 12 -93 -100 -111 -118 -157 -92 -228 14 -36
1918 -1940 1954 -1954 71 -27 118 -8 226 92 50 46 76 64 81 56 3 -7 14 -69 23
-138 10 -69 19 -136 21 -150 3 -14 22 -153 45 -310 22 -157 42 -296 45 -309 2
-14 7 -45 10 -70 19 -167 33 -198 101 -231 82 -40 139 -16 249 106 39 43 79
87 90 98 36 37 170 209 232 296 162 228 319 520 423 785 85 214 180 564 205
748 3 17 7 41 9 52 2 12 7 48 11 80 4 33 8 71 11 85 2 14 6 72 10 130 10 180
10 183 29 197 45 32 302 292 401 404 116 132 140 161 245 299 419 545 751
1198 939 1845 35 121 89 338 104 420 33 175 51 297 61 405 4 36 8 76 11 90 2
14 7 120 10 236 6 199 5 213 -14 251 -37 72 -54 78 -244 79 -92 1 -169 0 -170
-2z m137 -378 c-2 -50 -7 -120 -10 -156 -4 -36 -8 -85 -11 -110 -2 -25 -6 -61
-9 -80 -3 -19 -8 -48 -10 -65 -56 -446 -241 -1012 -492 -1510 -182 -361 -418
-721 -662 -1010 -42 -49 -87 -103 -101 -120 -35 -43 -390 -397 -422 -422 -23
-17 -79 -67 -224 -198 -12 -11 -53 -47 -90 -80 -37 -33 -88 -78 -113 -101 -68
-61 -271 -242 -311 -278 -315 -280 -397 -353 -410 -366 -61 -57 -364 -326
-370 -328 -6 -2 -1630 1614 -1668 1661 -14 17 -9 23 323 392 40 44 87 98 106
120 19 21 41 46 49 55 8 8 123 137 255 285 132 149 244 275 250 281 5 6 44 49
85 95 41 46 116 129 165 184 50 55 105 118 124 140 84 99 334 346 440 435 30
25 65 55 78 66 39 36 222 177 320 247 264 190 630 400 918 527 77 34 149 66
160 70 144 65 564 203 685 226 14 3 39 9 55 14 17 5 57 14 90 21 33 7 65 14
70 15 28 6 74 15 105 20 19 2 46 7 60 10 14 2 34 6 46 8 18 4 55 8 169 21 17
2 73 7 125 11 52 3 96 7 97 8 1 0 31 2 66 2 l65 2 -3 -92z m-4051 -1738 c-11
-13 -58 -66 -105 -118 -46 -52 -88 -100 -94 -106 -5 -6 -42 -47 -81 -90 -39
-43 -86 -97 -105 -119 -19 -21 -41 -46 -49 -55 -8 -9 -46 -51 -85 -94 -38 -44
-75 -84 -80 -90 -6 -6 -44 -49 -85 -96 -127 -144 -121 -139 -173 -129 -25 4
-67 11 -93 14 -27 3 -60 7 -74 10 -14 2 -43 7 -65 10 -22 3 -51 7 -65 10 -14
2 -47 7 -75 10 -27 3 -158 22 -290 41 -132 19 -250 35 -262 36 -48 4 -27 24
182 174 206 148 386 246 690 379 114 50 416 143 545 169 192 38 221 43 305 52
33 3 62 8 64 10 15 14 11 0 -5 -18z m2233 -2276 c-4 -38 -11 -91 -16 -118 -6
-27 -12 -62 -15 -79 -4 -26 -30 -149 -41 -195 -112 -456 -336 -913 -637 -1299
-42 -53 -72 -78 -66 -53 2 6 -9 100 -17 142 -4 23 -15 100 -20 145 -3 22 -10
65 -15 95 -5 30 -11 73 -14 95 -5 48 -16 122 -21 150 -1 11 -6 45 -10 75 -3
30 -10 78 -15 105 -29 163 -28 184 7 215 77 68 178 157 197 175 13 11 58 52
101 90 43 39 83 75 89 80 6 6 49 44 96 85 47 41 87 77 90 80 3 3 45 41 95 85
153 136 168 149 189 172 12 12 23 22 25 22 2 1 1 -30 -2 -67z"/>
<path d="M4928 5724 c-2 -1 -21 -4 -43 -8 -297 -42 -540 -276 -601 -575 -16
-80 -16 -229 0 -301 46 -211 202 -406 398 -499 113 -53 196 -70 328 -67 148 5
205 18 321 76 442 223 529 834 168 1176 -105 98 -246 169 -384 191 -33 5 -183
11 -187 7z m182 -305 c50 -15 130 -52 130 -61 0 -5 6 -8 12 -8 23 0 110 -104
138 -165 34 -72 44 -120 43 -197 -4 -196 -149 -374 -342 -417 -44 -10 -155 -8
-203 3 -130 30 -249 138 -299 271 -34 90 -33 227 3 313 31 76 76 136 137 183
107 82 259 114 381 78z"/>
<path d="M1364 2329 c-244 -18 -492 -146 -624 -324 -157 -212 -357 -673 -584
-1350 -88 -261 -146 -447 -152 -486 -13 -80 40 -151 122 -165 33 -5 70 3 190
41 394 126 871 294 1039 366 387 166 520 234 650 329 164 121 289 347 321 579
5 37 5 202 1 226 -3 11 -7 38 -11 60 -56 327 -332 617 -666 701 -93 23 -182
30 -286 23z m246 -314 c220 -78 372 -245 416 -456 50 -242 -49 -491 -249 -623
-51 -33 -308 -166 -322 -166 -2 0 -28 -11 -57 -24 -172 -80 -1013 -385 -1025
-372 -5 4 147 448 211 619 113 299 173 442 256 608 116 234 178 305 325 377
53 25 79 34 170 56 41 10 231 -3 275 -19z"/>
</g>
</svg>
